# AST/ASF file generated using VICON BodyLanguage
# -----------------------------------------------
:version 1.10
:name VICON
:units
  mass 1.0
  length 0.45
  angle deg
:documentation
   .ast/.asf automatically generated from VICON data using
   VICON BodyBuilder and BodyLanguage model FoxedUp or BRILLIANT.MOD
:root
   order TX TY TZ RX RY RZ
   axis XYZ
   position 0 0 0  
   orientation 0 0 0 
:bonedata
  begin
     id 1 
     name lhipjoint
     direction 0.627457 -0.725269 0.283342 
     length 2.53237 
     axis 0 0 0  XYZ
  end
  begin
     id 2 
     name lfemur
     direction 0.34202 -0.939693 0  
     length 7.32496  
     axis 0 0 20  XYZ
    dof rx ry rz
    limits (-160.0 20.0)
           (-70.0 70.0)
           (-60.0 70.0)
  end
  begin
     id 3 
     name ltibia
     direction 0.34202 -0.939693 0   
     length 7.69674   
     axis 0 0 20   XYZ
    dof rx
    limits (-10.0 170.0)
  end
  begin
     id 4 
     name lfoot
     direction 0.127289 -0.349722 0.928166   
     length 1.8612   
     axis -90 7.62852e-016 20   XYZ
    dof rx rz
    limits (-45.0 90.0)
           (-70.0 20.0)
  end
  begin
     id 5 
     name ltoes
     direction 1.53561e-011 -4.21864e-011 1   
     length 0.925608   
     axis -90 7.62852e-016 20   XYZ
    dof rx
    limits (-90.0 20.0)
  end
  begin
     id 6 
     name rhipjoint
     direction -0.609094 -0.738725 0.288599   
     length 2.48624  
     axis 0 0 0  XYZ 
  end
  begin
     id 7 
     name rfemur
     direction -0.34202 -0.939693 0   
     length 7.44259   
     axis 0 0 -20   XYZ
    dof rx ry rz
    limits (-160.0 20.0)
           (-70.0 70.0)
           (-70.0 60.0)
  end
  begin
     id 8 
     name rtibia
     direction -0.34202 -0.939693 0   
     length 7.7781   
     axis 0 0 -20   XYZ
    dof rx
    limits (-10.0 170.0)
 end
 begin
     id 9 
     name rfoot
     direction -0.107015 -0.294021 0.949789   
     length 2.14741  
     axis -90 -7.62852e-016 -20   XYZ
    dof rx rz
    limits (-45.0 90.0)
           (-20.0 70.0)
  end
  begin
     id 10 
     name rtoes
     direction -1.53497e-011 -4.21924e-011 1   
     length 1.0706   
     axis -90 -7.62852e-016 -20   XYZ
    dof rx
    limits (-90.0 20.0)
  end
  begin
     id 11 
     name lowerback
     direction -0.0142066 0.998112 -0.0597545   
     length 1.86627   
     axis 0 0 0   XYZ
    dof rx ry rz
    limits (-20.0 45.0)
           (-30.0 30.0)
           (-30.0 30.0)
  end
  begin
     id 12 
     name upperback
     direction 0.00547294 0.999744 0.0219437   
     length 1.86272   
     axis 0 0 0   XYZ
    dof rx ry rz
    limits (-20.0 45.0)
           (-30.0 30.0)
           (-30.0 30.0)
  end
  begin
     id 13 
     name thorax
     direction 0.0116162 0.998704 0.0495538   
     length 1.8703   
     axis 0 0 0   XYZ
    dof rx ry rz
    limits (-20.0 45.0)
           (-30.0 30.0)
           (-30.0 30.0)
  end
  begin
     id 14 
     name lowerneck
     direction -0.0106574 0.998739 0.0490586   
     length 1.8074   
     axis 0 0 0   XYZ
    dof rx ry rz
    limits (-20.0 45.0)
           (-30.0 30.0)
           (-30.0 30.0)
  end
  begin
     id 15 
     name upperneck
     direction 0.030527 0.976587 -0.212944   
     length 1.80681   
     axis 0 0 0   XYZ
    dof rx ry rz
    limits (-20.0 45.0)
           (-30.0 30.0)
           (-30.0 30.0)
  end
  begin
     id 16
     name head
     direction 0.00869225 0.997035 -0.0764531  
     length 1.8313  
     axis 0 0 0   XYZ
    dof rx ry rz
    limits (-20.0 45.0)
           (-30.0 30.0)
           (-30.0 30.0)
  end
  begin
     id 17 
     name lclavicle
     direction 0.915958 0.399447 0.0382386  
     length 3.78965  
     axis 0 0 0   XYZ
    dof ry rz
    limits (-20.0 10.0)
           (0.0 20.0)
  end
  begin
     id 18 
     name lhumerus
     direction 1 -4.48967e-011 3.19303e-027   
     length 4.78095   
     axis -180 -30 -90   XYZ
    dof rx ry rz
    limits (-60.0 90.0)
           (-90.0 90.0)
           (-90.0 90.0)
  end
  begin
     id 19
     name lradius
     direction 1 -4.48967e-011 -3.77974e-027   
     length 3.58615   
     axis -180 -30 -90   XYZ
    dof rx
    limits (-10.0 170.0)
  end
  begin
     id 20
     name lwrist
     direction 1 -4.48927e-011 1.2807e-027   
     length 1.79307   
     axis 1.91374e-015 90 90   XYZ
    dof ry
    limits (-180.0 0.0)
 end
  begin
     id 21 
     name lhand
     direction 1 -4.49036e-011 2.5614e-027   
     length 0.659812   
     axis -1.63439e-015 90 90   XYZ
    dof rx rz
    limits (-90.0 90.0)
           (-45.0 45.0)
  end
  begin
     id 22 
     name lfingers
     direction 1 -4.49052e-011 5.1228e-027   
     length 0.531957   
     axis -3.26879e-015 90 90   XYZ
    dof rx
    limits (0.0 90.0)
  end
  begin
     id 23
     name lthumb
     direction 0.707107 -6.35012e-011 0.707107   
     length 0.763787   
     axis -90 45 2.85299e-015   XYZ
    dof rx rz
    limits (-45.0 45.0)
           (-45.0 45.0)
  end
  begin
     id 24 
     name rclavicle
     direction -0.895351 0.435135 0.0948887   
     length 3.70497  
     axis 0 0 0   XYZ 
    dof ry rz
    limits (-10.0 20.0)
           (-20.0 0.0)
  end
  begin
     id 25 
     name rhumerus
     direction -1 -4.48971e-011 2.38946e-027  
     length 4.48913   
     axis -180 30 90   XYZ
    dof rx ry rz
    limits (-90.0 60.0)
           (-90.0 90.0)
           (-90.0 90.0)
  end
  begin
     id 26 
     name rradius
     direction -1 -4.4895e-011 4.38668e-027   
     length 3.7051   
     axis -180 30 90   XYZ
    dof rx
    limits (-10.0 170.0)
  end
  begin
     id 27 
     name rwrist
     direction -1 -4.49007e-011 1.2807e-027   
     length 1.85255   
     axis 1.91374e-015 -90 -90   XYZ
    dof ry
    limits (-180.0 0.0)
  end
  begin
     id 28
     name rhand
     direction -1 -4.48851e-011 2.5614e-027   
     length 0.449136   
     axis -1.63439e-015 -90 -90   XYZ
    dof rx rz
    limits (-90.0 90.0)
           (-45.0 45.0)
  end
  begin
     id 29
     name rfingers
     direction -1 -4.49128e-011 5.1228e-027   
     length 0.362105   
     axis -3.26879e-015 -90 -90   XYZ
    dof rx
    limits (0.0 90.0)
  end
  begin
     id 30
     name rthumb
     direction -0.707107 -6.34851e-011 0.707107   
     length 0.519912   
     axis -90 -45 -2.85299e-015   XYZ
    dof rx rz
    limits (-45.0 45.0)
           (-45.0 45.0)
  end
:hierarchy
  begin
    root lhipjoint rhipjoint lowerback
    lhipjoint lfemur
    lfemur ltibia
    ltibia lfoot
    lfoot ltoes
    rhipjoint rfemur
    rfemur rtibia
    rtibia rfoot
    rfoot rtoes
    lowerback upperback
    upperback thorax
    thorax lowerneck lclavicle rclavicle
    lowerneck upperneck
    upperneck head
    lclavicle lhumerus
    lhumerus lradius
    lradius lwrist
    lwrist lhand lthumb
    lhand lfingers
    rclavicle rhumerus
    rhumerus rradius
    rradius rwrist
    rwrist rhand rthumb
    rhand rfingers
  end

#!OML:ASF I:\Actors\actors\Patient Classification 2\Patient 1\Session 1\actor1.ASF
:FULLY-SPECIFIED
:DEGREES
1
root -0.690765 18.6727 5.71566 1.69422 -5.49755 -1.47652
lowerback 0.066516 1.43552 0.453193
upperback -1.8052 1.92303 0.211523
thorax -1.87846 0.955323 -0.0697013
lowerneck -11.1135 -2.1711 -4.07897
upperneck 31.2792 -3.12391 2.93563
head 12.251 -1.51974 1.39446
rclavicle 9.57272e-015 -1.11319e-014
rhumerus -48.6698 0.806141 -90.0733
rradius 48.6436
rwrist 17.8996
rhand -11.5889 -32.0326
rfingers 7.12502
rthumb 14.4531 -61.5093
lclavicle 9.57272e-015 -1.11319e-014
lhumerus -43.5019 -10.6155 94.5023
lradius 49.1679
lwrist 3.29149
lhand -7.0767 -25.9057
lfingers 7.12502
lthumb 18.797 3.2061
rfemur 0 0 0
rtibia 0
rfoot 0 0
rtoes 0
lfemur -2.28621 -6.36834 -13.5144
ltibia 20.217
lfoot -25.5048 18.7311
ltoes -54.8858
2
root -0.692316 18.6729 5.70727 1.63228 -5.41053 -1.4835
lowerback 0.188133 1.43909 0.445986
upperback -1.69544 1.9278 0.196136
thorax -1.83376 0.95792 -0.0830641
lowerneck -11.1356 -2.22569 -4.19513
upperneck 31.387 -3.21982 3.07163
head 12.3089 -1.55886 1.45404
rclavicle -1.27564e-014 -4.67144e-015
rhumerus -48.9095 2.2083 -90.8271
rradius 50.6828
rwrist 18.0681
rhand -12.2634 -32.3629
rfingers 7.12502
rthumb 13.8032 -61.885
lclavicle -1.27564e-014 -4.67144e-015
lhumerus -43.6842 -12.1699 94.8355
lradius 51.4047
lwrist 4.4452
lhand -7.07718 -26.77
lfingers 7.12502
lthumb 18.7966 2.34185
rfemur 0 0 0
rtibia 0
rfoot 0 0
rtoes 0
lfemur -2.28843 -6.34035 -13.483
ltibia 20.2545
lfoot -25.4687 18.5949
ltoes -54.8243
3
root -0.691146 18.6737 5.69848 1.57826 -5.34118 -1.51143
lowerback 0.289288 1.44827 0.468634
upperback -1.55273 1.94024 0.190315
thorax -1.74311 0.964154 -0.102326
lowerneck -11.228 -2.28245 -4.27876
upperneck 31.4806 -3.31627 3.18409
head 12.3751 -1.59647 1.49829
rclavicle -4.26797e-014 1.19271e-015
rhumerus -49.1854 3.92591 -91.6323
rradius 53.1578
rwrist 18.5319
rhand -13.4992 -32.8412
rfingers 7.12502
rthumb 12.612 -62.4405
lclavicle -4.26797e-014 1.19271e-015
lhumerus -43.9663 -13.9461 95.2152
lradius 54.1162
lwrist 5.30723
lhand -7.25216 -27.5405
lfingers 7.12502
lthumb 18.6283 1.58758
rfemur 0 0 0
rtibia 0
rfoot 0 0
rtoes 0
lfemur -2.3065 -6.24243 -13.4343
ltibia 20.3044
lfoot -25.3561 18.523
ltoes -54.9088
4
root -0.689625 18.6748 5.68801 1.52346 -5.28648 -1.53687
lowerback 0.396027 1.46264 0.467326
upperback -1.39331 1.95927 0.182575
thorax -1.63918 0.974089 -0.110157
lowerneck -11.2994 -2.33818 -4.22184
upperneck 31.4644 -3.40336 3.17079
head 12.3863 -1.62909 1.47036
rclavicle -1.70862e-014 -5.06901e-015
rhumerus -49.5382 6.26796 -92.7455
rradius 56.0249
rwrist 18.3064
rhand -14.5382 -33.3526
rfingers 7.12502
rthumb 11.6102 -63.011
lclavicle -1.70862e-014 -5.06901e-015
lhumerus -44.3572 -16.0767 95.6255
lradius 57.2789
lwrist 5.67251
lhand -7.85153 -28.2379
lfingers 7.12502
lthumb 18.0517 0.944379
rfemur 0 0 0
rtibia 0
rfoot 0 0
rtoes 0
lfemur -2.3137 -6.23045 -13.4059
ltibia 20.3383
lfoot -25.2872 18.4971
ltoes -54.902
5
root -0.689739 18.6749 5.67672 1.43672 -5.13096 -1.48116
lowerback 0.517605 1.43749 0.360745
upperback -1.20815 1.92406 0.165111
thorax -1.5206 0.958195 -0.0681153
lowerneck -11.3669 -2.4004 -4.26635
upperneck 31.4042 -3.49819 3.23481
head 12.3827 -1.66741 1.48814
rclavicle -1.26135e-014 -5.56597e-015
rhumerus -49.8977 8.99537 -93.8973
rradius 59.2153
rwrist 17.931
rhand -14.7531 -33.3468
rfingers 7.12502
rthumb 11.4029 -63.0167
lclavicle -1.26135e-014 -5.56597e-015
lhumerus -44.718 -18.454 96.0088
lradius 60.6912
lwrist 5.52739
lhand -8.91778 -29.1779
lfingers 7.12502
lthumb 17.0256 0.0960317
rfemur 0 0 0
rtibia 0
rfoot 0 0
rtoes 0
lfemur -2.30897 -6.32886 -13.4653
ltibia 20.3723
lfoot -25.2694 18.4227
ltoes -54.8471
6
root -0.690331 18.6748 5.66296 1.37978 -4.96454 -1.44872
lowerback 0.646025 1.42155 0.288396
upperback -1.04479 1.90164 0.146657
thorax -1.427 0.947999 -0.0469779
lowerneck -11.3987 -2.46222 -4.43211
upperneck 31.3781 -3.60285 3.4198
head 12.3915 -1.70946 1.57255
rclavicle -3.73808e-015 1.39149e-015
rhumerus -50.2089 11.3594 -94.5675
rradius 62.625
rwrist 18.1829
rhand -14.4579 -32.735
rfingers 7.12502
rthumb 11.6875 -62.389
lclavicle -3.73808e-015 1.39149e-015
lhumerus -44.8988 -20.8416 96.2409
lradius 64.1949
lwrist 5.06683
lhand -9.80777 -30.0919
lfingers 7.12502
lthumb 16.1688 -0.746246
rfemur 0 0 0
rtibia 0
rfoot 0 0
rtoes 0
lfemur -2.36149 -6.2782 -13.4683
ltibia 20.4055
lfoot -25.1327 18.3224
ltoes -54.9965
7
root -0.688953 18.6763 5.64523 1.40455 -4.94448 -1.44432
lowerback 0.798043 1.4608 0.253983
upperback -0.962096 1.9535 0.117942
thorax -1.42756 0.97415 -0.0609829
lowerneck -11.356 -2.4986 -4.47825
upperneck 31.3794 -3.68367 3.5407
head 12.3907 -1.73573 1.61596
rclavicle 1.11444e-014 4.37326e-015
rhumerus -50.4993 13.4392 -95.0204
rradius 66.1791
rwrist 18.3328
rhand -14.5662 -32.3021
rfingers 7.12502
rthumb 11.5831 -61.962
lclavicle 1.11444e-014 4.37326e-015
lhumerus -44.8892 -23.0873 96.2549
lradius 67.6988
lwrist 4.81224
lhand -10.1479 -30.7303
lfingers 7.12502
lthumb 15.8412 -1.35839
rfemur 0 0 0
rtibia 0
rfoot 0 0
rtoes 0
lfemur -2.49623 -6.17289 -13.4504
ltibia 20.4389
lfoot -25.0145 18.2937
ltoes -55.0736
8
root -0.68705 18.6793 5.62666 1.46486 -4.9066 -1.42955
lowerback 0.969592 1.4833 0.174824
upperback -0.927895 1.98248 0.0978674
thorax -1.49064 0.98925 -0.0422351
lowerneck -11.3278 -2.5305 -4.3818
upperneck 31.4744 -3.7406 3.48678
head 12.4233 -1.75652 1.57184
rclavicle 1.27168e-014 5.1684e-015
rhumerus -50.6841 15.5256 -95.4443
rradius 69.7124
rwrist 18.3187
rhand -15.1319 -32.1846
rfingers 7.12502
rthumb 11.0375 -61.8744
lclavicle 1.27168e-014 5.1684e-015
lhumerus -44.7416 -25.1776 96.0878
lradius 71.2283
lwrist 5.09999
lhand -10.0736 -30.9439
lfingers 7.12502
lthumb 15.9128 -1.57764
rfemur 0 0 0
rtibia 0
rfoot 0 0
rtoes 0
lfemur -2.67079 -6.20883 -13.4552
ltibia 20.4804
lfoot -24.9658 18.3045
ltoes -55.0565
9
root -0.684935 18.6831 5.60784 1.52014 -4.78702 -1.43852
lowerback 1.1564 1.48749 0.0985265
upperback -0.897163 1.98729 0.110661
thorax -1.56699 0.99243 0.00848177
lowerneck -11.3286 -2.56878 -4.29003
upperneck 31.6458 -3.79082 3.38309
head 12.4922 -1.78057 1.51082
rclavicle 2.03595e-014 3.18055e-015
rhumerus -50.6672 17.6221 -95.6441
rradius 73.0902
rwrist 18.3684
rhand -17.224 -31.7619
rfingers 7.12502
rthumb 9.0192 -61.5491
lclavicle 2.03595e-014 3.18055e-015
lhumerus -44.3707 -27.2756 95.8677
lradius 74.6017
lwrist 5.77915
lhand -10.0261 -30.8345
lfingers 7.12502
lthumb 15.9585 -1.47188
rfemur 0 0 0
rtibia 0
rfoot 0 0
rtoes 0
lfemur -2.8485 -6.3061 -13.4286
ltibia 20.5288
lfoot -24.8867 18.298
ltoes -55.1161
10
root -0.681658 18.687 5.58561 1.57209 -4.59345 -1.40806
lowerback 1.37436 1.47586 -0.0213111
upperback -0.876181 1.97003 0.13442
thorax -1.67267 0.985152 0.0942713
lowerneck -11.297 -2.60079 -4.21006
upperneck 31.8267 -3.81775 3.24198
head 12.5568 -1.80051 1.44104
rclavicle -1.52932e-014 -5.96354e-015
rhumerus -50.4429 19.7732 -95.6083
rradius 76.286
rwrist 18.3536
rhand -20.4312 -31.4597
rfingers 7.12502
rthumb 5.92349 -61.3569
lclavicle -1.52932e-014 -5.96354e-015
lhumerus -43.7481 -29.486 95.5984
lradius 77.6592
lwrist 6.36703
lhand -10.4807 -30.3383
lfingers 7.12502
lthumb 15.5207 -0.941254
rfemur 0 0 0
rtibia 0
rfoot 0 0
rtoes 0
lfemur -3.04703 -6.45425 -13.4454
ltibia 20.5678
lfoot -24.8135 18.2623
ltoes -55.1052
11
root -0.678925 18.6907 5.56336 1.64382 -4.44963 -1.3914
lowerback 1.51906 1.47655 -0.148313
upperback -0.844769 1.96885 0.178343
thorax -1.72751 0.986226 0.206602
lowerneck -11.2948 -2.63932 -4.14381
upperneck 32.0614 -3.83505 3.05165
head 12.649 -1.82367 1.35591
rclavicle -1.10527e-014 -1.05356e-014
rhumerus -49.9986 22.0117 -95.3622
rradius 79.2434
rwrist 18.2546
rhand -22.0586 -31.8391
rfingers 7.12502
rthumb 4.35215 -61.7744
lclavicle -1.10527e-014 -1.05356e-014
lhumerus -42.9362 -31.7211 95.1291
lradius 80.4839
lwrist 6.77089
lhand -11.1095 -29.7203
lfingers 7.12502
lthumb 14.915 -0.277229
rfemur 0 0 0
rtibia 0
rfoot 0 0
rtoes 0
lfemur -3.2428 -6.58388 -13.4428
ltibia 20.5883
lfoot -24.8121 18.1957
ltoes -54.9594
